HIERARCHY
ROOT Hips
{
	OFFSET -0.001795 -0.223333 0.028219
	CHANNELS 6 Xposition Yposition Zposition Zrotation Yrotation Xrotation 
	JOINT LeftUpLeg
	{
		OFFSET 0.069520 -0.091406 -0.006815
		CHANNELS 3 Zrotation Yrotation Xrotation
		JOINT LeftLeg
		{
			OFFSET 0.034277 -0.375199 -0.004496
			CHANNELS 3 Zrotation Yrotation Xrotation
			JOINT LeftFoot
			{
				OFFSET -0.013596 -0.397961 -0.043693
				CHANNELS 3 Zrotation Yrotation Xrotation
				JOINT LeftToe
				{
					OFFSET 0.026358 -0.055791 0.119288
					CHANNELS 3 Zrotation Yrotation Xrotation
					End Site
					{
						OFFSET 0.000000 0.000000 0.000000
					}
				}
			}
		}
	}
	JOINT RightUpLeg
	{
		OFFSET -0.067670 -0.090522 -0.004320
		CHANNELS 3 Zrotation Yrotation Xrotation
		JOINT RightLeg
		{
			OFFSET -0.038290 -0.382569 -0.008850
			CHANNELS 3 Zrotation Yrotation Xrotation
			JOINT RightFoot
			{
				OFFSET 0.015774 -0.398415 -0.042312
				CHANNELS 3 Zrotation Yrotation Xrotation
				JOINT RightToe
				{
					OFFSET -0.025372 -0.048144 0.123348
					CHANNELS 3 Zrotation Yrotation Xrotation
					End Site
					{
						OFFSET 0.000000 0.000000 0.000000
					}
				}
			}
		}
	}
	JOINT Spine
	{
		OFFSET -0.002533 0.108963 -0.026696
		CHANNELS 3 Zrotation Yrotation Xrotation
		JOINT Spine1
		{
			OFFSET 0.005487 0.135180 0.001092
			CHANNELS 3 Zrotation Yrotation Xrotation
			JOINT Spine2
			{
				OFFSET 0.001457 0.052922 0.025425
				CHANNELS 3 Zrotation Yrotation Xrotation
				JOINT Neck
				{
					OFFSET -0.002778 0.213870 -0.042857
					CHANNELS 3 Zrotation Yrotation Xrotation
					JOINT Head
					{
						OFFSET 0.005152 0.064970 0.051349
						CHANNELS 3 Zrotation Yrotation Xrotation
						End Site
						{
							OFFSET 0.000000 0.000000 0.000000
						}
					}
				}
				JOINT LeftShoulder
				{
					OFFSET 0.078845 0.121749 -0.034090
					CHANNELS 3 Zrotation Yrotation Xrotation
					JOINT LeftArm
					{
						OFFSET 0.090977 0.030469 -0.008868
						CHANNELS 3 Zrotation Yrotation Xrotation
						JOINT LeftForeArm
						{
							OFFSET 0.259612 -0.012772 -0.027456
							CHANNELS 3 Zrotation Yrotation Xrotation
							JOINT LeftHand
							{
								OFFSET 0.249234 0.008986 -0.001171
								CHANNELS 3 Zrotation Yrotation Xrotation
								End Site
								{
									OFFSET 0.000000 0.000000 0.000000
								}
							}
						}
					}
				}
				JOINT RightShoulder
				{
					OFFSET -0.081759 0.118833 -0.038615
					CHANNELS 3 Zrotation Yrotation Xrotation
					JOINT RightArm
					{
						OFFSET -0.096012 0.032551 -0.009143
						CHANNELS 3 Zrotation Yrotation Xrotation
						JOINT RightForeArm
						{
							OFFSET -0.253742 -0.013329 -0.021401
							CHANNELS 3 Zrotation Yrotation Xrotation
							JOINT RightHand
							{
								OFFSET -0.255298 0.007772 -0.005559
								CHANNELS 3 Zrotation Yrotation Xrotation
								End Site
								{
									OFFSET 0.000000 0.000000 0.000000
								}
							}
						}
					}
				}
			}
		}
	}
}
MOTION
Frames: 15
Frame Time: 0.050000
0.000000 0.945655 0.000000 -1.344338 -0.469715 2.849415 5.679374 0.022345 2.971988 -2.894038 0.369374 -6.104572 1.398927 5.732671 8.031306 0.000000 0.000000 0.000000 -3.029215 -0.006927 1.356706 2.289936 -0.325546 -4.503144 -0.161408 -4.569031 9.712850 0.000000 0.000000 0.000000 -1.013317 0.052361 -1.056078 4.052127 -0.475022 -22.334165 -0.264701 0.213795 27.229702 1.021764 1.389104 -32.208812 0.000000 0.000000 0.000000 -27.033080 -2.576661 -0.018821 -49.873797 -4.889674 -6.161894 -10.522125 -22.991354 3.277169 0.000000 0.000000 0.000000 17.946197 7.957845 3.273217 56.974623 4.786732 -5.671755 4.216762 27.543114 2.216037 0.000000 0.000000 0.000000
-0.000064 0.944495 0.000003 -1.558764 -1.771720 3.626258 5.994591 0.028867 3.182863 -3.150471 0.405272 -7.428886 1.893633 6.455129 7.859196 0.000000 0.000000 0.000000 -3.315560 0.112622 0.056130 2.843123 -0.343634 -3.997647 0.282133 -3.634349 9.218716 0.000000 0.000000 0.000000 -0.860778 0.091975 -2.110227 3.836683 -0.464612 -21.978501 0.102033 1.074021 27.315261 1.665332 1.134590 -33.060158 0.000000 0.000000 0.000000 -27.347985 -2.579558 -0.022858 -49.621874 -4.461034 -6.311441 -11.508142 -23.541142 3.575952 0.000000 0.000000 0.000000 17.715967 8.231945 3.427755 57.742948 4.335827 -5.959492 3.615649 28.362994 2.176768 0.000000 0.000000 0.000000
-0.000059 0.944209 -0.000168 -1.139628 -1.714037 3.494627 6.085424 0.019145 2.989728 -4.026695 0.446594 -6.352857 2.117671 6.636237 7.027380 0.000000 0.000000 0.000000 -3.665923 0.108626 0.284887 2.701123 -0.342525 -4.526675 0.497685 -3.266125 9.409760 0.000000 0.000000 0.000000 -0.825482 0.092260 -2.146515 3.303149 -0.315646 -22.164883 0.043737 0.568233 27.654960 1.462861 1.245134 -34.576125 0.000000 0.000000 0.000000 -26.162813 -2.233329 0.012722 -50.084190 -4.373790 -6.461798 -12.196575 -23.897138 3.810012 0.000000 0.000000 0.000000 17.975861 8.809158 3.608334 57.212375 4.953455 -5.618541 2.644906 28.533245 1.926071 0.000000 0.000000 0.000000
-0.000043 0.943611 -0.000330 -1.093196 -1.823037 4.146283 6.177625 -0.010150 2.521811 -4.489070 0.471558 -6.894636 2.353552 7.163021 7.469435 0.000000 0.000000 0.000000 -3.782074 0.151305 -0.196431 2.953930 -0.363282 -5.100549 0.665779 -3.103210 9.828405 0.000000 0.000000 0.000000 -1.240874 0.120627 -2.919248 3.786885 -0.428482 -22.314592 -0.059557 0.581759 27.562822 1.692964 1.185011 -35.266257 0.000000 0.000000 0.000000 -26.311338 -1.591381 -0.406868 -49.825268 -3.446686 -6.755605 -13.361911 -24.564577 4.186946 0.000000 0.000000 0.000000 18.173733 9.369384 3.895034 56.547087 4.530087 -5.725873 2.302095 30.870292 2.025141 0.000000 0.000000 0.000000
-0.000016 0.944305 -0.000649 -0.881674 -1.698129 3.909757 5.910439 0.004186 2.585905 -4.423188 0.468169 -6.581270 2.658988 7.748159 7.590269 0.000000 0.000000 0.000000 -3.834707 0.103517 0.516217 2.642933 -0.354458 -5.587094 0.699145 -3.080142 9.973825 0.000000 0.000000 0.000000 -1.315315 0.110648 -2.663589 3.984722 -0.485664 -22.173766 -0.252464 0.855058 27.212885 1.783690 1.209644 -35.345764 0.000000 0.000000 0.000000 -26.024559 -1.498847 -0.604819 -49.634588 -2.942087 -6.845637 -14.920130 -25.657305 4.730706 0.000000 0.000000 0.000000 18.722161 8.358276 3.445717 54.556747 4.869897 -5.397434 1.894332 34.885785 2.258605 0.000000 0.000000 0.000000
0.000233 0.944660 -0.001214 -1.006710 -1.917266 4.013022 5.786799 0.008125 2.525362 -4.468883 0.472951 -6.577427 3.197463 8.780823 8.015698 0.000000 0.000000 0.000000 -4.074782 0.121307 0.435966 3.046330 -0.375422 -5.773903 0.998413 -2.610753 10.233010 0.000000 0.000000 0.000000 -1.322105 0.117469 -2.848689 4.048481 -0.486226 -22.445447 -0.087660 0.879727 27.478959 1.809473 1.186030 -35.439902 0.000000 0.000000 0.000000 -26.466261 -1.353405 -0.677502 -49.446233 -2.266954 -7.109218 -15.234942 -26.677260 5.023136 0.000000 0.000000 0.000000 18.697557 8.791131 3.648671 52.671981 6.394415 -4.618756 -2.647033 40.957373 1.153470 0.000000 0.000000 0.000000
0.000495 0.945513 -0.001974 -0.945534 -2.106998 4.117202 5.395859 0.022947 2.501028 -4.307894 0.465621 -6.861694 3.388558 9.225762 8.604106 0.000000 0.000000 0.000000 -4.180937 0.140649 0.243199 3.003163 -0.371784 -5.803131 1.225446 -2.187538 10.252167 0.000000 0.000000 0.000000 -1.182381 0.120445 -2.899214 4.209760 -0.553908 -22.071466 -0.314147 0.902431 27.052832 1.999272 1.075096 -35.214328 0.000000 0.000000 0.000000 -26.588225 -1.223580 -0.745107 -49.563112 -1.859793 -7.256826 -15.203819 -27.071800 5.103942 0.000000 0.000000 0.000000 18.835749 8.466242 3.432765 50.317500 8.999480 -3.383041 -12.585504 50.179628 -2.912693 0.000000 0.000000 0.000000
0.000852 0.945929 -0.002701 -1.048017 -2.709095 4.395261 5.444897 0.006282 2.062721 -4.480157 0.483720 -6.399858 3.587696 9.543884 8.690963 0.000000 0.000000 0.000000 -4.299828 0.179731 -0.183140 3.186351 -0.372023 -5.551137 1.576336 -1.487285 10.090053 0.000000 0.000000 0.000000 -1.003768 0.138649 -3.320180 4.076944 -0.512359 -22.355549 -0.282167 0.933681 27.423833 1.768517 1.109862 -35.063545 0.000000 0.000000 0.000000 -26.460737 -1.141761 -0.628949 -50.078354 -1.323127 -7.609207 -15.030810 -27.723932 5.232139 0.000000 0.000000 0.000000 18.137684 8.596371 3.402699 47.958664 12.539837 -1.966017 -31.634169 58.717309 -14.045244 0.000000 0.000000 0.000000
0.001041 0.946817 -0.003154 -1.020525 -3.022324 4.658248 4.968542 0.015793 1.929823 -4.335560 0.477916 -6.938140 3.870115 10.083064 9.102624 0.000000 0.000000 0.000000 -4.343503 0.213997 -0.631055 2.885061 -0.352878 -5.417509 1.902620 -0.909073 10.175850 0.000000 0.000000 0.000000 -0.879641 0.163817 -3.933036 4.091502 -0.540802 -22.021314 -0.468258 0.837671 27.209407 2.117217 0.869766 -34.561756 0.000000 0.000000 0.000000 -26.019195 -1.368526 -0.352841 -50.958098 -0.721050 -7.976021 -14.275461 -27.603098 5.037861 0.000000 0.000000 0.000000 17.100859 8.419103 3.210490 45.690936 17.535831 -0.103150 -58.103066 60.723316 -31.031594 0.000000 0.000000 0.000000
0.000956 0.947070 -0.003175 -0.965000 -3.155458 4.819495 4.938742 0.012525 1.847851 -4.257463 0.475062 -6.692603 3.434257 9.329448 9.137179 0.000000 0.000000 0.000000 -4.412428 0.234331 -0.881545 2.757470 -0.346310 -5.496471 2.185671 -0.286090 10.032030 0.000000 0.000000 0.000000 -0.705621 0.180357 -4.290331 4.010093 -0.496573 -22.398874 -0.735536 0.714670 27.494854 1.803991 0.969195 -34.433805 0.000000 0.000000 0.000000 -26.263396 -1.668330 -0.080804 -51.315921 -0.367896 -8.220361 -13.665088 -28.093104 4.998241 0.000000 0.000000 0.000000 15.599831 9.036690 3.469594 43.262920 22.588295 1.515787 -82.074704 55.687834 -43.458702 0.000000 0.000000 0.000000
0.000683 0.947374 -0.002778 -0.792077 -3.081370 4.989949 4.624524 0.009201 1.658020 -3.921567 0.455044 -6.866923 3.282433 9.095672 9.253105 0.000000 0.000000 0.000000 -4.355011 0.241391 -1.014170 2.360417 -0.326095 -5.403021 2.144866 -0.366439 10.045635 0.000000 0.000000 0.000000 -0.703128 0.186283 -4.440553 3.841163 -0.436321 -22.643208 -0.892949 0.737194 27.120608 2.287994 0.731266 -34.068327 0.000000 0.000000 0.000000 -25.771001 -1.929972 0.060737 -51.458052 0.280987 -8.451411 -13.128452 -28.234080 4.868156 0.000000 0.000000 0.000000 13.567211 9.020416 3.438356 40.913463 26.901177 2.747260 -94.627291 47.925671 -44.944388 0.000000 0.000000 0.000000
0.000276 0.947473 -0.002129 -0.609516 -2.765053 4.966503 4.376236 0.009841 1.589973 -3.696705 0.438551 -6.715925 2.809680 8.298158 9.204583 0.000000 0.000000 0.000000 -4.384429 0.229089 -0.843707 2.079825 -0.318610 -5.632605 1.784672 -1.081402 10.102225 0.000000 0.000000 0.000000 -0.552311 0.201022 -4.798796 3.699417 -0.390096 -22.737916 -1.280974 0.938919 27.148286 1.917242 0.941808 -33.685598 0.000000 0.000000 0.000000 -25.410015 -2.262969 0.138532 -51.404809 0.465214 -8.482852 -12.722260 -28.562735 4.793460 0.000000 0.000000 0.000000 12.028423 9.286176 3.611436 37.685391 29.805873 3.181252 -99.480583 40.373803 -40.153322 0.000000 0.000000 0.000000
-0.000115 0.947208 -0.001462 -0.378831 -2.379988 5.122009 3.948200 0.010095 1.463726 -3.160919 0.407237 -7.019322 2.661205 8.120474 9.415405 0.000000 0.000000 0.000000 -4.348359 0.234820 -0.989421 1.744998 -0.300837 -5.453926 1.448261 -1.667889 10.006134 0.000000 0.000000 0.000000 -0.704400 0.212072 -5.194334 3.384352 -0.286999 -23.069993 -1.291487 0.926302 27.229063 1.899688 0.977142 -33.548616 0.000000 0.000000 0.000000 -24.810591 -2.399076 0.167465 -51.307292 0.606426 -8.506243 -12.537783 -28.348258 4.683941 0.000000 0.000000 0.000000 10.242743 9.133941 3.532791 35.576606 31.362977 3.284201 -100.075442 35.063135 -34.634161 0.000000 0.000000 0.000000
-0.000461 0.947316 -0.000943 -0.182784 -1.954195 5.244125 3.686795 0.005404 1.330147 -2.775241 0.384594 -7.117300 2.289952 7.501674 9.338775 0.000000 0.000000 0.000000 -4.276757 0.231416 -1.013414 1.491120 -0.294038 -5.615756 0.878315 -2.830749 10.174434 0.000000 0.000000 0.000000 -0.916928 0.217468 -5.525604 3.500415 -0.281311 -23.514954 -1.679940 1.057295 27.555371 1.763029 1.101720 -33.532291 0.000000 0.000000 0.000000 -24.330806 -2.278198 -0.013591 -51.175920 0.311993 -8.361395 -11.917574 -28.383516 4.509018 0.000000 0.000000 0.000000 8.849862 8.984592 3.486359 33.374284 31.314299 2.870580 -99.403054 31.232044 -29.947914 0.000000 0.000000 0.000000
-0.000698 0.947262 -0.000647 -0.029430 -1.428961 5.200124 3.736922 -0.000062 1.333840 -2.878829 0.388027 -7.382924 2.070114 7.216465 9.519456 0.000000 0.000000 0.000000 -4.284949 0.218137 -0.871489 1.384603 -0.289642 -5.560743 0.561396 -3.325628 9.990036 0.000000 0.000000 0.000000 -1.037110 0.213065 -5.591747 3.265330 -0.214099 -23.522453 -1.787673 0.833367 27.502361 1.790519 1.135830 -33.955845 0.000000 0.000000 0.000000 -23.736675 -1.993463 -0.203397 -50.945031 0.174124 -8.246749 -11.998711 -28.486975 4.535393 0.000000 0.000000 0.000000 7.728787 8.432783 3.224217 31.906251 30.375170 2.411069 -97.730373 28.803481 -26.602610 0.000000 0.000000 0.000000
